<svg width="800" height="800" viewBox="0 0 800 800" fill="none" xmlns="http://www.w3.org/2000/svg">
<g id="logo-dark-square">
<rect width="800" height="800" fill="#424242"/>
<g id="logo-dark">
<g id="{js} - Light">
<path d="M110.074 403.519C118.04 408.655 123.543 414.629 126.583 421.442C129.623 428.256 131.143 439.995 131.143 456.661V479.931C131.143 490.308 131.981 496.806 133.658 499.427C135.44 502.152 138.742 503.986 143.563 504.93C144.716 505.244 146.446 505.559 148.752 505.873C160.596 507.655 166.519 513.472 166.519 523.325C166.519 528.147 164.789 532.025 161.33 534.96C157.871 537.895 153.259 539.362 147.494 539.362C140.157 539.362 133.029 538.157 126.111 535.746C119.298 533.335 113.638 530.034 109.131 525.841C104.204 521.334 100.693 515.516 98.5966 508.389C96.6051 501.261 95.6093 489.05 95.6093 471.755V453.517C95.6093 434.649 86.9095 423.801 69.5097 420.971C68.776 420.761 68.2519 420.656 67.9375 420.656C62.9062 419.818 59.1852 418.036 56.7744 415.311C54.3636 412.585 53.1582 408.655 53.1582 403.519C53.1582 399.011 54.1539 395.448 56.1455 392.827C58.2418 390.207 61.5436 388.32 66.0508 387.167C68.0423 386.538 70.9248 385.857 74.6982 385.123C88.639 382.503 95.6093 372.126 95.6093 353.992V335.282C95.6093 319.245 96.3955 308.03 97.9677 301.636C99.54 295.137 102.213 289.477 105.986 284.655C110.389 279.31 116.258 275.169 123.596 272.234C131.038 269.195 139.214 267.675 148.123 267.675C153.678 267.675 158.133 269.142 161.487 272.077C164.841 274.907 166.519 278.681 166.519 283.397C166.519 293.25 160.177 299.173 147.494 301.164C146.341 301.269 145.503 301.374 144.978 301.479C139.738 302.317 136.121 304.256 134.13 307.296C132.138 310.231 131.143 316.992 131.143 327.578V350.69C131.143 366.413 129.57 377.943 126.426 385.28C123.281 392.618 117.831 398.697 110.074 403.519ZM689.611 403.519C681.96 398.697 676.561 392.618 673.417 385.28C670.272 377.943 668.7 366.413 668.7 350.69V327.578V317.516C668.7 312.589 667.442 308.868 664.927 306.353C662.411 303.732 658.218 302.003 652.349 301.164C644.697 300.116 639.613 298.334 637.098 295.818C634.582 293.303 633.324 289.477 633.324 284.341C633.324 279.1 634.896 275.012 638.041 272.077C641.29 269.142 645.85 267.675 651.72 267.675C659.476 267.675 666.709 268.828 673.417 271.134C680.125 273.44 685.733 276.689 690.24 280.882C695.376 285.599 698.992 291.468 701.089 298.491C703.185 305.409 704.233 317.673 704.233 335.282V353.992C704.233 372.23 711.413 382.765 725.773 385.595C729.232 386.119 731.905 386.643 733.792 387.167C738.194 388.32 741.444 390.259 743.54 392.984C745.636 395.605 746.685 399.116 746.685 403.519C746.685 408.131 745.584 411.852 743.383 414.682C741.182 417.407 737.88 419.294 733.478 420.342C731.8 420.656 729.442 421.076 726.402 421.6C711.623 424.43 704.233 435.069 704.233 453.517V471.755C704.233 488.316 703.447 499.794 701.875 506.188C700.303 512.686 697.63 518.189 693.856 522.696C689.769 527.623 683.846 531.606 676.09 534.646C668.438 537.79 660.42 539.362 652.034 539.362C646.164 539.362 641.552 537.842 638.198 534.803C634.949 531.868 633.324 527.728 633.324 522.382C633.324 517.455 634.53 513.734 636.94 511.219C639.456 508.703 644.592 506.816 652.349 505.559C658.742 504.615 663.04 502.886 665.241 500.37C667.547 497.854 668.7 493.819 668.7 488.264V479.931V456.661C668.7 439.995 670.22 428.256 673.26 421.442C676.299 414.629 681.75 408.655 689.611 403.519Z" fill="#FCFCFC"/>
<path d="M304.563 365.155H252.05C244.817 365.155 239.681 363.793 236.642 361.067C233.602 358.342 232.082 353.94 232.082 347.86C232.082 341.676 233.549 337.274 236.484 334.653C239.524 332.033 244.713 330.723 252.05 330.723H334.122C337.057 330.723 339.311 331.352 340.883 332.609C342.56 333.762 343.398 335.387 343.398 337.483V473.484C343.398 495.286 337.476 511.586 325.632 522.382C313.892 533.283 296.126 538.733 272.332 538.733C255.876 538.733 244.188 537.056 237.27 533.702C230.353 530.453 226.894 524.845 226.894 516.879C226.894 511.848 228.256 508.074 230.981 505.559C233.707 503.043 237.69 501.785 242.931 501.785C245.341 501.785 250.215 502.309 257.553 503.357C264.995 504.406 271.179 504.93 276.105 504.93C286.797 504.93 294.186 501.942 298.274 495.968C302.467 489.993 304.563 477.31 304.563 457.919V365.155ZM313.84 259.656C321.387 259.656 326.418 261.124 328.934 264.059C331.554 266.993 332.864 274.016 332.864 285.127C332.864 296.028 331.711 302.736 329.405 305.252C327.204 307.663 322.016 308.868 313.84 308.868C305.559 308.868 300.214 307.663 297.803 305.252C295.392 302.736 294.186 297.915 294.186 290.787C294.186 277.37 295.392 268.828 297.803 265.159C300.214 261.491 305.559 259.656 313.84 259.656ZM455.029 473.799C452.304 475.895 449.474 477.467 446.539 478.516C443.709 479.669 440.774 480.245 437.734 480.245C433.227 480.245 430.03 479.04 428.144 476.629C426.362 474.218 425.471 469.711 425.471 463.107V442.196C425.471 435.278 426.624 430.404 428.93 427.574C431.236 424.639 435.219 423.172 440.879 423.172C447.063 423.172 452.094 426.159 455.973 432.134C458.279 435.383 460.218 437.794 461.79 439.366C466.926 443.978 472.901 447.437 479.714 449.743C486.527 452.049 494.283 453.202 502.983 453.202C510.53 453.202 516.557 451.735 521.064 448.8C525.572 445.865 527.825 442.039 527.825 437.322C527.825 428.832 515.719 422.962 491.506 419.713C486.16 419.084 481.967 418.507 478.928 417.983C460.689 415.468 447.116 410.541 438.206 403.204C429.297 395.762 424.842 385.804 424.842 373.331C424.842 358.552 430.187 347.127 440.879 339.056C451.57 330.985 466.821 326.949 486.632 326.949C493.445 326.949 500.415 327.526 507.543 328.679C514.775 329.727 522.165 331.404 529.712 333.71C531.913 331.09 534.219 329.15 536.63 327.893C539.145 326.635 541.923 326.006 544.963 326.006C549.26 326.006 552.51 327.368 554.711 330.094C557.017 332.714 558.17 336.697 558.17 342.043V361.382C558.17 365.889 557.017 369.4 554.711 371.916C552.405 374.327 549.156 375.532 544.963 375.532C540.665 375.532 533.276 371.811 522.794 364.369C512.417 356.822 501.988 353.049 491.506 353.049C483.33 353.049 476.989 354.411 472.481 357.137C467.974 359.757 465.721 363.426 465.721 368.143C465.721 375.48 475.154 380.406 494.021 382.922C499.472 383.551 503.77 384.075 506.914 384.494C530.603 387.953 546.85 393.142 555.654 400.06C564.564 406.873 569.019 417.04 569.019 430.562C569.019 446.389 563.149 458.653 551.409 467.353C539.774 475.948 523.213 480.245 501.726 480.245C493.34 480.245 485.269 479.669 477.513 478.516C469.756 477.467 462.262 475.895 455.029 473.799Z" fill="#90CAF9"/>
</g>
</g>
</g>
</svg>
