<svg width="773" height="297" viewBox="0 0 773 297" fill="none" xmlns="http://www.w3.org/2000/svg">
<g clip-path="url(#clip0)">
<path d="M97.0742 153.519C105.04 158.655 110.543 164.629 113.583 171.442C116.623 178.256 118.143 189.995 118.143 206.661V229.931C118.143 240.308 118.981 246.806 120.658 249.427C122.44 252.152 125.742 253.986 130.563 254.93C131.716 255.244 133.446 255.559 135.752 255.873C147.596 257.655 153.519 263.472 153.519 273.325C153.519 278.147 151.789 282.025 148.33 284.96C144.871 287.895 140.259 289.362 134.494 289.362C127.157 289.362 120.029 288.157 113.111 285.746C106.298 283.335 100.638 280.034 96.1309 275.841C91.2044 271.334 87.693 265.516 85.5967 258.389C83.6051 251.261 82.6094 239.05 82.6094 221.755V203.517C82.6094 184.649 73.9095 173.801 56.5098 170.971C55.776 170.761 55.252 170.656 54.9375 170.656C49.9062 169.818 46.1852 168.036 43.7744 165.311C41.3636 162.585 40.1582 158.655 40.1582 153.519C40.1582 149.011 41.154 145.448 43.1455 142.827C45.2419 140.207 48.5436 138.32 53.0508 137.167C55.0423 136.538 57.9248 135.857 61.6982 135.123C75.639 132.503 82.6094 122.126 82.6094 103.992V85.2822C82.6094 69.2451 83.3955 58.0296 84.9678 51.6357C86.54 45.137 89.2129 39.4769 92.9863 34.6553C97.3887 29.3096 103.258 25.1693 110.596 22.2344C118.038 19.1947 126.214 17.6748 135.123 17.6748C140.678 17.6748 145.133 19.1423 148.487 22.0771C151.841 24.9072 153.519 28.6807 153.519 33.3975C153.519 43.2503 147.177 49.1725 134.494 51.1641C133.341 51.2689 132.503 51.3737 131.979 51.4785C126.738 52.3171 123.121 54.2562 121.13 57.2959C119.138 60.2308 118.143 66.9915 118.143 77.5781V100.69C118.143 116.413 116.57 127.943 113.426 135.28C110.281 142.618 104.831 148.697 97.0742 153.519ZM676.611 153.519C668.96 148.697 663.562 142.618 660.417 135.28C657.272 127.943 655.7 116.413 655.7 100.69V77.5781V67.5156C655.7 62.5892 654.442 58.8682 651.927 56.3525C649.411 53.7321 645.218 52.0026 639.349 51.1641C631.697 50.1159 626.613 48.334 624.098 45.8184C621.582 43.3027 620.324 39.4769 620.324 34.3408C620.324 29.0999 621.896 25.012 625.041 22.0771C628.29 19.1423 632.85 17.6748 638.72 17.6748C646.476 17.6748 653.709 18.8278 660.417 21.1338C667.125 23.4398 672.733 26.6891 677.24 30.8818C682.376 35.5986 685.993 41.4684 688.089 48.4912C690.185 55.4092 691.233 67.6729 691.233 85.2822V103.992C691.233 122.23 698.413 132.765 712.773 135.595C716.232 136.119 718.905 136.643 720.792 137.167C725.194 138.32 728.444 140.259 730.54 142.984C732.636 145.605 733.685 149.116 733.685 153.519C733.685 158.131 732.584 161.852 730.383 164.682C728.182 167.407 724.88 169.294 720.478 170.342C718.8 170.656 716.442 171.076 713.402 171.6C698.623 174.43 691.233 185.069 691.233 203.517V221.755C691.233 238.316 690.447 249.794 688.875 256.188C687.303 262.686 684.63 268.189 680.856 272.696C676.769 277.623 670.846 281.606 663.09 284.646C655.438 287.79 647.42 289.362 639.034 289.362C633.164 289.362 628.552 287.842 625.198 284.803C621.949 281.868 620.324 277.728 620.324 272.382C620.324 267.455 621.53 263.734 623.94 261.219C626.456 258.703 631.592 256.816 639.349 255.559C645.743 254.615 650.04 252.886 652.241 250.37C654.547 247.854 655.7 243.819 655.7 238.264V229.931V206.661C655.7 189.995 657.22 178.256 660.26 171.442C663.299 164.629 668.75 158.655 676.611 153.519Z" fill="#FCFCFC"/>
<path d="M291.563 115.155H239.05C231.817 115.155 226.681 113.793 223.642 111.067C220.602 108.342 219.082 103.94 219.082 97.8604C219.082 91.6761 220.549 87.2738 223.484 84.6533C226.524 82.0329 231.713 80.7227 239.05 80.7227H321.122C324.057 80.7227 326.311 81.3516 327.883 82.6094C329.56 83.7624 330.398 85.387 330.398 87.4834V223.484C330.398 245.286 324.476 261.586 312.632 272.382C300.892 283.283 283.126 288.733 259.332 288.733C242.876 288.733 231.188 287.056 224.271 283.702C217.353 280.453 213.894 274.845 213.894 266.879C213.894 261.848 215.256 258.074 217.981 255.559C220.707 253.043 224.69 251.785 229.931 251.785C232.341 251.785 237.215 252.309 244.553 253.357C251.995 254.406 258.179 254.93 263.105 254.93C273.797 254.93 281.187 251.942 285.274 245.968C289.467 239.993 291.563 227.31 291.563 207.919V115.155ZM300.84 9.65625C308.387 9.65625 313.418 11.1237 315.934 14.0586C318.554 16.9935 319.864 24.0163 319.864 35.127C319.864 46.028 318.711 52.7363 316.405 55.252C314.204 57.6628 309.016 58.8682 300.84 58.8682C292.559 58.8682 287.214 57.6628 284.803 55.252C282.392 52.7363 281.187 47.9147 281.187 40.7871C281.187 27.3704 282.392 18.8278 284.803 15.1592C287.214 11.4906 292.559 9.65625 300.84 9.65625ZM442.029 223.799C439.304 225.895 436.474 227.467 433.539 228.516C430.709 229.669 427.774 230.245 424.734 230.245C420.227 230.245 417.03 229.04 415.144 226.629C413.362 224.218 412.471 219.711 412.471 213.107V192.196C412.471 185.278 413.624 180.404 415.93 177.574C418.236 174.639 422.219 173.172 427.879 173.172C434.063 173.172 439.094 176.159 442.973 182.134C445.279 185.383 447.218 187.794 448.79 189.366C453.926 193.978 459.901 197.437 466.714 199.743C473.527 202.049 481.284 203.202 489.983 203.202C497.53 203.202 503.557 201.735 508.064 198.8C512.572 195.865 514.825 192.039 514.825 187.322C514.825 178.832 502.719 172.962 478.506 169.713C473.16 169.084 468.967 168.507 465.928 167.983C447.689 165.468 434.116 160.541 425.206 153.204C416.297 145.762 411.842 135.804 411.842 123.331C411.842 108.552 417.188 97.1266 427.879 89.0557C438.57 80.9847 453.821 76.9492 473.632 76.9492C480.445 76.9492 487.415 77.5257 494.543 78.6787C501.775 79.7269 509.165 81.404 516.712 83.71C518.913 81.0895 521.219 79.1504 523.63 77.8926C526.146 76.6348 528.923 76.0059 531.963 76.0059C536.26 76.0059 539.51 77.3685 541.711 80.0938C544.017 82.7142 545.17 86.6973 545.17 92.043V111.382C545.17 115.889 544.017 119.4 541.711 121.916C539.405 124.327 536.156 125.532 531.963 125.532C527.665 125.532 520.276 121.811 509.794 114.369C499.417 106.822 488.988 103.049 478.506 103.049C470.33 103.049 463.989 104.411 459.481 107.137C454.974 109.757 452.721 113.426 452.721 118.143C452.721 125.48 462.154 130.406 481.021 132.922C486.472 133.551 490.77 134.075 493.914 134.494C517.603 137.953 533.85 143.142 542.654 150.06C551.564 156.873 556.019 167.04 556.019 180.562C556.019 196.389 550.149 208.653 538.409 217.353C526.774 225.948 510.213 230.245 488.726 230.245C480.34 230.245 472.269 229.669 464.513 228.516C456.756 227.467 449.262 225.895 442.029 223.799Z" fill="#90CAF9"/>
</g>
<defs>
<clipPath id="clip0">
<rect width="773" height="297" fill="white"/>
</clipPath>
</defs>
</svg>
