<svg width="773" height="297" viewBox="0 0 773 297" fill="none" xmlns="http://www.w3.org/2000/svg">
<g clip-path="url(#clip0)">
<path d="M97.0742 153.182C105.04 158.318 110.543 164.293 113.583 171.106C116.623 177.919 118.143 189.658 118.143 206.324V229.594C118.143 239.971 118.981 246.47 120.658 249.09C122.44 251.815 125.742 253.65 130.563 254.593C131.716 254.907 133.446 255.222 135.752 255.536C147.596 257.318 153.519 263.136 153.519 272.988C153.519 277.81 151.789 281.688 148.33 284.623C144.871 287.558 140.259 289.026 134.494 289.026C127.157 289.026 120.029 287.82 113.111 285.409C106.298 282.999 100.638 279.697 96.1309 275.504C91.2044 270.997 87.693 265.18 85.5967 258.052C83.6051 250.924 82.6094 238.713 82.6094 221.418V203.18C82.6094 184.313 73.9095 173.464 56.5098 170.634C55.776 170.424 55.252 170.32 54.9375 170.32C49.9062 169.481 46.1852 167.699 43.7744 164.974C41.3636 162.249 40.1582 158.318 40.1582 153.182C40.1582 148.675 41.154 145.111 43.1455 142.49C45.2419 139.87 48.5436 137.983 53.0508 136.83C55.0423 136.201 57.9248 135.52 61.6982 134.786C75.639 132.166 82.6094 121.789 82.6094 103.655V84.9455C82.6094 68.9084 83.3955 57.6929 84.9678 51.299C86.54 44.8003 89.2129 39.1402 92.9863 34.3185C97.3887 28.9728 103.258 24.8325 110.596 21.8976C118.038 18.8579 126.214 17.3381 135.123 17.3381C140.678 17.3381 145.133 18.8055 148.487 21.7404C151.841 24.5705 153.519 28.3439 153.519 33.0607C153.519 42.9136 147.177 48.8358 134.494 50.8273C133.341 50.9321 132.503 51.037 131.979 51.1418C126.738 51.9803 123.121 53.9195 121.13 56.9592C119.138 59.8941 118.143 66.6548 118.143 77.2414V100.354C118.143 116.076 116.57 127.606 113.426 134.944C110.281 142.281 104.831 148.36 97.0742 153.182ZM676.611 153.182C668.96 148.36 663.562 142.281 660.417 134.944C657.272 127.606 655.7 116.076 655.7 100.354V77.2414V67.1789C655.7 62.2525 654.442 58.5314 651.927 56.0158C649.411 53.3954 645.218 51.6659 639.349 50.8273C631.697 49.7792 626.613 47.9973 624.098 45.4816C621.582 42.966 620.324 39.1402 620.324 34.0041C620.324 28.7632 621.896 24.6753 625.041 21.7404C628.29 18.8055 632.85 17.3381 638.72 17.3381C646.476 17.3381 653.709 18.4911 660.417 20.7971C667.125 23.103 672.733 26.3524 677.24 30.5451C682.376 35.2619 685.993 41.1317 688.089 48.1545C690.185 55.0724 691.233 67.3361 691.233 84.9455V103.655C691.233 121.894 698.413 132.428 712.773 135.258C716.232 135.782 718.905 136.306 720.792 136.83C725.194 137.983 728.444 139.922 730.54 142.648C732.636 145.268 733.685 148.779 733.685 153.182C733.685 157.794 732.584 161.515 730.383 164.345C728.182 167.07 724.88 168.957 720.478 170.005C718.8 170.32 716.442 170.739 713.402 171.263C698.623 174.093 691.233 184.732 691.233 203.18V221.418C691.233 237.979 690.447 249.457 688.875 255.851C687.303 262.349 684.63 267.852 680.856 272.36C676.769 277.286 670.846 281.269 663.09 284.309C655.438 287.453 647.42 289.026 639.034 289.026C633.164 289.026 628.552 287.506 625.198 284.466C621.949 281.531 620.324 277.391 620.324 272.045C620.324 267.119 621.53 263.398 623.94 260.882C626.456 258.366 631.592 256.48 639.349 255.222C645.743 254.279 650.04 252.549 652.241 250.033C654.547 247.518 655.7 243.482 655.7 237.927V229.594V206.324C655.7 189.658 657.22 177.919 660.26 171.106C663.299 164.293 668.75 158.318 676.611 153.182Z" fill="#424242"/>
<path d="M291.563 114.819H239.05C231.817 114.819 226.681 113.456 223.642 110.731C220.602 108.005 219.082 103.603 219.082 97.5236C219.082 91.3394 220.549 86.937 223.484 84.3166C226.524 81.6961 231.713 80.3859 239.05 80.3859H321.122C324.057 80.3859 326.311 81.0148 327.883 82.2726C329.56 83.4256 330.398 85.0503 330.398 87.1467V223.148C330.398 244.95 324.476 261.249 312.632 272.045C300.892 282.946 283.126 288.397 259.332 288.397C242.876 288.397 231.188 286.72 224.271 283.365C217.353 280.116 213.894 274.508 213.894 266.542C213.894 261.511 215.256 257.737 217.981 255.222C220.707 252.706 224.69 251.448 229.931 251.448C232.341 251.448 237.215 251.973 244.553 253.021C251.995 254.069 258.179 254.593 263.105 254.593C273.797 254.593 281.187 251.606 285.274 245.631C289.467 239.656 291.563 226.973 291.563 207.582V114.819ZM300.84 9.31952C308.387 9.31952 313.418 10.787 315.934 13.7219C318.554 16.6568 319.864 23.6795 319.864 34.7902C319.864 45.6913 318.711 52.3996 316.405 54.9152C314.204 57.326 309.016 58.5314 300.84 58.5314C292.559 58.5314 287.214 57.326 284.803 54.9152C282.392 52.3996 281.187 47.578 281.187 40.4504C281.187 27.0337 282.392 18.4911 284.803 14.8224C287.214 11.1538 292.559 9.31952 300.84 9.31952ZM442.029 223.462C439.304 225.558 436.474 227.131 433.539 228.179C430.709 229.332 427.774 229.908 424.734 229.908C420.227 229.908 417.03 228.703 415.144 226.292C413.362 223.881 412.471 219.374 412.471 212.771V191.86C412.471 184.942 413.624 180.068 415.93 177.237C418.236 174.303 422.219 172.835 427.879 172.835C434.063 172.835 439.094 175.822 442.973 181.797C445.279 185.046 447.218 187.457 448.79 189.029C453.926 193.641 459.901 197.1 466.714 199.406C473.527 201.712 481.284 202.865 489.983 202.865C497.53 202.865 503.557 201.398 508.064 198.463C512.572 195.528 514.825 191.702 514.825 186.986C514.825 178.495 502.719 172.626 478.506 169.376C473.16 168.747 468.967 168.171 465.928 167.647C447.689 165.131 434.116 160.205 425.206 152.867C416.297 145.425 411.842 135.468 411.842 122.994C411.842 108.215 417.188 96.7899 427.879 88.7189C438.57 80.648 453.821 76.6125 473.632 76.6125C480.445 76.6125 487.415 77.189 494.543 78.342C501.775 79.3902 509.165 81.0672 516.712 83.3732C518.913 80.7528 521.219 78.8137 523.63 77.5558C526.146 76.298 528.923 75.6691 531.963 75.6691C536.26 75.6691 539.51 77.0318 541.711 79.757C544.017 82.3775 545.17 86.3605 545.17 91.7062V111.045C545.17 115.552 544.017 119.064 541.711 121.579C539.405 123.99 536.156 125.195 531.963 125.195C527.665 125.195 520.276 121.474 509.794 114.032C499.417 106.486 488.988 102.712 478.506 102.712C470.33 102.712 463.989 104.075 459.481 106.8C454.974 109.42 452.721 113.089 452.721 117.806C452.721 125.143 462.154 130.07 481.021 132.585C486.472 133.214 490.77 133.738 493.914 134.157C517.603 137.616 533.85 142.805 542.654 149.723C551.564 156.536 556.019 166.703 556.019 180.225C556.019 196.052 550.149 208.316 538.409 217.016C526.774 225.611 510.213 229.908 488.726 229.908C480.34 229.908 472.269 229.332 464.513 228.179C456.756 227.131 449.262 225.558 442.029 223.462Z" fill="#1565C0"/>
</g>
<defs>
<clipPath id="clip0">
<rect width="773" height="297" fill="white"/>
</clipPath>
</defs>
</svg>
